<?xml version="1.0" standalone="no"?><!DOCTYPE svg PUBLIC "-//W3C//DTD SVG 1.1//EN" "http://www.w3.org/Graphics/SVG/1.1/DTD/svg11.dtd"><svg class="icon" height="512" viewBox="0 0 1318 1024" version="1.1" xmlns="http://www.w3.org/2000/svg"><path d="M34.899282 516.740129C37.629949 518.797305 40.94235 519.885534 44.311641 519.885534 45.308114 519.885534 46.302752 519.793778 47.299225 519.599254L104.977218 508.482065 129.558723 503.756616 355.343382 460.315527C361.413977 459.133706 366.267884 454.474323 367.679095 448.431254 369.06278 442.358824 366.776214 436.058839 361.801188 432.337204L266.855468 325.534738C362.059941 220.059068 476.43964 149.470968 669.006694 113.73557 921.07035 66.989419 1168.770077 144.4519 1284.66192 260.281348 1263.234995 211.89276 1208.770307 161.707584 1163.659253 129.706667 1046.347024 46.423168 903.530221 0.675326 737.121045 0.675326 570.684343 0.675326 410.962364 32.158738 294.841131 117.112201 255.960328 145.578667 233.113016 165.306265 158.318809 247.943799L25.163942 179.247713C22.369046 177.163011 19.063985 176.100473 15.714881 176.100473 13.085146 176.100473 10.446236 176.746437 8.073419 178.093419 2.641447 181.112201-0.505793 187.054337 0.066766 193.225864L28.698394 505.591742C29.085605 510.021735 31.335469 514.071857 34.899282 516.740129L34.899282 516.740129ZM1316.024214 831.449462 1287.392586 519.083584C1287.005375 514.646251 1284.762852 510.60347 1281.191697 507.937032 1278.461031 505.879857 1275.148629 504.789792 1271.744472 504.789792 1270.784701 504.789792 1269.788228 504.883384 1268.791755 505.076072L1211.0844 516.195097 1186.50473 520.911369 960.747597 564.352459C954.64764 565.54162 949.830436 570.201004 948.411884 576.244072 946.998837 582.316502 949.314766 588.610982 954.260429 592.338122L1049.206149 699.140588C954.038378 804.618093 839.651339 875.204358 647.091626 910.932416 394.991267 957.685907 147.293376 880.186724 31.392358 764.395814 52.826623 812.782566 107.293146 862.967742 152.4042 894.968659 269.743955 978.244817 412.560758 1024 578.969934 1024 745.37911 1024 905.128615 992.509247 1021.220486 907.563125 1060.132486 879.098495 1082.948601 859.370896 1157.744644 776.731527L1290.927038 845.427613C1293.723769 847.514151 1297.026995 848.574853 1300.376099 848.574853 1303.005834 848.574853 1305.644744 847.928889 1308.024902 846.581907 1313.451368 843.563125 1316.569246 837.613649 1316.024214 831.449462L1316.024214 831.449462Z" /></svg>